<svg width="32" height="40" viewBox="0 0 32 40" fill="none" xmlns="http://www.w3.org/2000/svg">
<path d="M25.0264 0C28.8941 2.47762e-05 31.8516 2.60002 31.8516 6V38C31.8516 39.2 30.9413 40 29.5762 40C29.1215 40 28.8941 39.9996 28.4395 39.7998L15.9258 33.4004L3.41211 39.7998C2.27464 40.1996 0.91003 39.9998 0.227539 39C2.58173e-05 38.6 0 38.4 0 38V6C0 2.60002 2.9575 2.56568e-05 6.8252 0H25.0264ZM25.6953 3.05078C25.2577 2.87222 24.7538 2.97084 24.4189 3.30078L22.0625 5.62305C16.9429 3.08638 10.5416 3.92157 6.2666 8.13379C0.931979 13.3901 0.931979 21.9126 6.2666 27.1689C11.6012 32.4252 20.2503 32.4252 25.585 27.1689C28.6876 24.1117 29.985 19.9487 29.4795 15.9707C29.3991 15.3385 28.8135 14.8897 28.1719 14.9688C27.5306 15.0481 27.0761 15.6249 27.1562 16.2568C27.5757 19.5585 26.4987 23.0048 23.9287 25.5371C19.5086 29.8922 12.3429 29.8922 7.92285 25.5371C3.50272 21.1819 3.50272 14.1209 7.92285 9.76562C11.2677 6.47 16.187 5.66729 20.2979 7.36133L17.7959 9.82715C17.4611 10.157 17.3611 10.6529 17.542 11.084C17.7232 11.5149 18.1497 11.7967 18.623 11.7969H25.2471C25.8937 11.7968 26.418 11.2797 26.418 10.6426V4.11621C26.4178 3.64986 26.1326 3.22935 25.6953 3.05078ZM13.3389 11.4258C12.5735 10.9363 11.5794 11.4827 11.5791 12.3818V24.1758C11.5794 25.0748 12.5736 25.6219 13.3389 25.1328L22.6387 19.2354C23.3466 18.7913 23.3466 17.7669 22.6387 17.3115L13.3389 11.4258ZM18.5508 18.2744L14.5791 20.793V15.7607L18.5508 18.2744Z" fill="#B9B9B9"/>
</svg>
