<svg width="33" height="34" viewBox="0 0 33 34" fill="none" xmlns="http://www.w3.org/2000/svg">
<path d="M23.6387 18.4932L12.75 25.3984V11.6006L23.6387 18.4932Z" stroke="#0060AC" stroke-width="3"/>
<path d="M28.3003 0.106108C28.8288 0.321808 29.1733 0.829945 29.1733 1.39356V9.27656C29.1733 10.0462 28.5401 10.6701 27.7591 10.6701H19.7585C19.1866 10.6701 18.6708 10.3306 18.4519 9.80985C18.2332 9.28912 18.354 8.68973 18.7585 8.29118L21.7813 5.31275C16.8157 3.26634 10.8731 4.23582 6.83285 8.21682C1.4938 13.4775 1.4938 22.0067 6.83285 27.2673C12.1719 32.528 20.8281 32.528 26.1671 27.2673C29.2714 24.2086 30.5716 20.0463 30.0649 16.0582C29.9678 15.2945 30.5175 14.5979 31.2925 14.5022C32.0675 14.4067 32.7745 14.9482 32.8716 15.7118C33.4822 20.5169 31.915 25.5453 28.1673 29.2382C21.7236 35.5873 11.2764 35.5873 4.83275 29.2382C-1.61092 22.8891 -1.61092 12.5951 4.83275 6.24608C9.99654 1.15806 17.7286 0.148695 23.9126 3.21275L26.7591 0.408189C27.1635 0.00965762 27.7717 -0.109573 28.3003 0.106108Z" fill="#0060AC"/>
</svg>
